<mxfile host="app.diagrams.net" modified="2021-05-13T14:08:36.283Z" agent="5.0 (Macintosh; Intel Mac OS X 10_15_7) AppleWebKit/605.1.15 (KHTML, like Gecko) Version/14.1 Safari/605.1.15" etag="H8VXi49fymSZOfdkU2j4" version="14.6.9" type="github">
  <diagram id="h5L0uEK8ULI0zUqq4tDc" name="Page-1">
    <mxGraphModel dx="1577" dy="1132" grid="1" gridSize="10" guides="1" tooltips="1" connect="1" arrows="1" fold="1" page="1" pageScale="1" pageWidth="827" pageHeight="1169" math="0" shadow="0">
      <root>
        <mxCell id="0" />
        <mxCell id="1" parent="0" />
        <mxCell id="h03cArfL4z3mAkUq-oM5-12" value="" style="rounded=0;whiteSpace=wrap;html=1;dashed=1;" vertex="1" parent="1">
          <mxGeometry x="50" y="40" width="730" height="240" as="geometry" />
        </mxCell>
        <mxCell id="h03cArfL4z3mAkUq-oM5-5" style="edgeStyle=orthogonalEdgeStyle;rounded=0;orthogonalLoop=1;jettySize=auto;html=1;exitX=0;exitY=0.75;exitDx=0;exitDy=0;entryX=1;entryY=0.75;entryDx=0;entryDy=0;dashed=1;" edge="1" parent="1" source="h03cArfL4z3mAkUq-oM5-1" target="h03cArfL4z3mAkUq-oM5-3">
          <mxGeometry relative="1" as="geometry" />
        </mxCell>
        <mxCell id="h03cArfL4z3mAkUq-oM5-8" style="edgeStyle=orthogonalEdgeStyle;rounded=0;orthogonalLoop=1;jettySize=auto;html=1;exitX=1;exitY=0.25;exitDx=0;exitDy=0;entryX=0;entryY=0.25;entryDx=0;entryDy=0;dashed=1;" edge="1" parent="1" source="h03cArfL4z3mAkUq-oM5-1" target="h03cArfL4z3mAkUq-oM5-2">
          <mxGeometry relative="1" as="geometry" />
        </mxCell>
        <mxCell id="h03cArfL4z3mAkUq-oM5-11" style="edgeStyle=orthogonalEdgeStyle;rounded=0;orthogonalLoop=1;jettySize=auto;html=1;exitX=0.75;exitY=1;exitDx=0;exitDy=0;entryX=0.75;entryY=0;entryDx=0;entryDy=0;" edge="1" parent="1" source="h03cArfL4z3mAkUq-oM5-1" target="h03cArfL4z3mAkUq-oM5-9">
          <mxGeometry relative="1" as="geometry" />
        </mxCell>
        <mxCell id="h03cArfL4z3mAkUq-oM5-1" value="&lt;font style=&quot;font-size: 27px&quot;&gt;API&lt;/font&gt;" style="rounded=0;whiteSpace=wrap;html=1;dashed=1;" vertex="1" parent="1">
          <mxGeometry x="333" y="90" width="160" height="160" as="geometry" />
        </mxCell>
        <mxCell id="h03cArfL4z3mAkUq-oM5-6" style="edgeStyle=orthogonalEdgeStyle;rounded=0;orthogonalLoop=1;jettySize=auto;html=1;exitX=0;exitY=0.75;exitDx=0;exitDy=0;entryX=1;entryY=0.75;entryDx=0;entryDy=0;dashed=1;" edge="1" parent="1" source="h03cArfL4z3mAkUq-oM5-2" target="h03cArfL4z3mAkUq-oM5-1">
          <mxGeometry relative="1" as="geometry" />
        </mxCell>
        <mxCell id="h03cArfL4z3mAkUq-oM5-2" value="&lt;font style=&quot;font-size: 27px&quot;&gt;Mobile Scanner&lt;br&gt;App&lt;/font&gt;" style="rounded=0;whiteSpace=wrap;html=1;dashed=1;" vertex="1" parent="1">
          <mxGeometry x="589" y="90" width="160" height="160" as="geometry" />
        </mxCell>
        <mxCell id="h03cArfL4z3mAkUq-oM5-7" style="edgeStyle=orthogonalEdgeStyle;rounded=0;orthogonalLoop=1;jettySize=auto;html=1;exitX=1;exitY=0.25;exitDx=0;exitDy=0;entryX=0;entryY=0.25;entryDx=0;entryDy=0;dashed=1;" edge="1" parent="1" source="h03cArfL4z3mAkUq-oM5-3" target="h03cArfL4z3mAkUq-oM5-1">
          <mxGeometry relative="1" as="geometry" />
        </mxCell>
        <mxCell id="h03cArfL4z3mAkUq-oM5-3" value="&lt;span style=&quot;font-size: 27px&quot;&gt;CV &amp;amp; ML&lt;br&gt;Engine&lt;/span&gt;" style="rounded=0;whiteSpace=wrap;html=1;dashed=1;" vertex="1" parent="1">
          <mxGeometry x="79" y="90" width="160" height="160" as="geometry" />
        </mxCell>
        <mxCell id="h03cArfL4z3mAkUq-oM5-10" style="edgeStyle=orthogonalEdgeStyle;rounded=0;orthogonalLoop=1;jettySize=auto;html=1;exitX=0.25;exitY=0;exitDx=0;exitDy=0;entryX=0.25;entryY=1;entryDx=0;entryDy=0;" edge="1" parent="1" source="h03cArfL4z3mAkUq-oM5-9" target="h03cArfL4z3mAkUq-oM5-1">
          <mxGeometry relative="1" as="geometry" />
        </mxCell>
        <mxCell id="h03cArfL4z3mAkUq-oM5-9" value="&lt;font style=&quot;font-size: 27px&quot;&gt;Storefront&lt;/font&gt;" style="rounded=0;whiteSpace=wrap;html=1;" vertex="1" parent="1">
          <mxGeometry x="333" y="330" width="160" height="160" as="geometry" />
        </mxCell>
        <mxCell id="h03cArfL4z3mAkUq-oM5-15" value="&lt;font style=&quot;font-size: 29px&quot;&gt;Fitly.ai&lt;/font&gt;" style="text;html=1;strokeColor=none;fillColor=none;align=center;verticalAlign=middle;whiteSpace=wrap;rounded=0;dashed=1;" vertex="1" parent="1">
          <mxGeometry x="395" y="60" width="40" height="20" as="geometry" />
        </mxCell>
        <mxCell id="h03cArfL4z3mAkUq-oM5-17" value="&lt;font style=&quot;font-size: 29px&quot;&gt;Client&lt;/font&gt;" style="text;html=1;strokeColor=none;fillColor=none;align=center;verticalAlign=middle;whiteSpace=wrap;rounded=0;dashed=1;" vertex="1" parent="1">
          <mxGeometry x="395" y="500" width="40" height="20" as="geometry" />
        </mxCell>
      </root>
    </mxGraphModel>
  </diagram>
</mxfile>
